<!-- <svg t="1635578893970" class="icon" viewBox="0 0 1024 1024" version="1.1" xmlns="http://www.w3.org/2000/svg" p-id="3865"  xmlns:xlink="http://www.w3.org/1999/xlink">
<defs><style type="text/css"></style></defs>
<path d="M320 885.333333c-8.533333 0-17.066667-4.266667-23.466667-10.666666-12.8-12.8-10.666667-34.133333 2.133334-44.8L654.933333 512 298.666667 194.133333c-12.8-10.666667-14.933333-32-2.133334-44.8 10.666667-12.8 32-14.933333 44.8-2.133333l384 341.333333c6.4 6.4 10.666667 14.933333 10.666667 23.466667 0 8.533333-4.266667 17.066667-10.666667 23.466667l-384 341.333333c-6.4 6.4-12.8 8.533333-21.333333 8.533333z" p-id="3866" >
</path>
</svg> -->


<svg t="1635578893970" xmlns="http://www.w3.org/2000/svg" p-id="3865"  xmlns:xlink="http://www.w3.org/1999/xlink">
  <symbol id="arrow" viewBox="0 0 1024 1024" version="1.1" xmlns="http://www.w3.org/2000/svg" p-id="3865"  xmlns:xlink="http://www.w3.org/1999/xlink">
    <defs><style type="text/css"></style></defs>
    <path fill="currentColor" fill-rule="nonzero" d="M320 885.333333c-8.533333 0-17.066667-4.266667-23.466667-10.666666-12.8-12.8-10.666667-34.133333 2.133334-44.8L654.933333 512 298.666667 194.133333c-12.8-10.666667-14.933333-32-2.133334-44.8 10.666667-12.8 32-14.933333 44.8-2.133333l384 341.333333c6.4 6.4 10.666667 14.933333 10.666667 23.466667 0 8.533333-4.266667 17.066667-10.666667 23.466667l-384 341.333333c-6.4 6.4-12.8 8.533333-21.333333 8.533333z" p-id="3866"  >
    </path>
  </symbol>
  <symbol id="checkOutline" t="1636357449720" class="icon" viewBox="0 0 1024 1024" version="1.1" xmlns="http://www.w3.org/2000/svg" p-id="3159" xmlns:xlink="http://www.w3.org/1999/xlink" >
    <defs><style type="text/css"></style></defs>
    <path fill="currentColor" fill-rule="nonzero" d="M392.533333 806.4L85.333333 503.466667l59.733334-59.733334 247.466666 247.466667L866.133333 213.333333l59.733334 59.733334L392.533333 806.4z"  p-id="3160"></path>
  </symbol>
</svg>